<svg xmlns="http://www.w3.org/2000/svg" width="11" height="12" viewBox="0 0 11 12">
    <path fill-rule="evenodd" d="M8.965 11.996c-1.005-.037-1.877-.238-2.716-.578-2.373-.962-4.08-2.643-5.222-4.92C.467 5.378.127 4.19.019 2.941-.015 2.56.006 2.17.01 1.784c.002-.191.087-.357.194-.511C.537.79.974.42 1.47.123c.288-.172.597-.15.89-.015.21.097.417.213.6.353.102.077.169.214.22.337.218.514.328 1.06.434 1.604.042.214.065.43.106.643.039.197-.004.373-.123.524-.131.166-.274.325-.425.475-.173.173-.357.336-.543.496-.063.055-.071.1-.044.175.217.585.53 1.118.883 1.629.72 1.045 1.639 1.882 2.7 2.567.331.215.333.204.627-.049.229-.196.463-.386.701-.57.24-.186.503-.237.804-.144.648.198 1.292.403 1.906.696.289.138.5.33.615.639.1.27.219.534.164.827-.026.143-.076.295-.16.41-.318.425-.7.784-1.16 1.058-.246.148-.506.243-.701.218"/>
</svg>
