<svg xmlns="http://www.w3.org/2000/svg" width="32" height="32" viewBox="0 0 32 32">
    <g fill="none" fill-rule="evenodd">
        <path fill="#EBEBEB" fill-rule="nonzero" d="M15-.5C6.44-.5-.5 6.44-.5 15c0 8.56 6.94 15.5 15.5 15.5 8.56 0 15.5-6.94 15.5-15.5C30.5 6.44 23.56-.5 15-.5zm0 1C23.008.5 29.5 6.992 29.5 15S23.008 29.5 15 29.5.5 23.008.5 15 6.992.5 15 .5z" transform="translate(1 1)"/>
        <path fill="#222" d="M20.415 20.85l-2.176-3.814c1.35-.614 2.068-1.731 2.068-3.137 0-2.25-1.713-3.899-4.8-3.899H10.7c-.11 0-.2.09-.2.2v10.6c0 .11.09.2.2.2h2.545c.11 0 .2-.09.2-.2v-8.109c0-.11.09-.2.2-.2h1.701c1.107 0 1.657.503 1.696 1.408.011.275-.041.552-.162.804-.112.235-.28.444-.486.615-.205.171-.446.304-.703.394-.27.096-.554.14-.843.141l-.264-.001c-.11-.001-.2.087-.201.198 0 .035.008.07.026.1l2.712 4.75c.036.062.102.1.174.1h3.033c.055 0 .1-.045.1-.1 0-.017-.005-.034-.013-.05z" transform="translate(1 1)"/>
    </g>
</svg>
