<svg xmlns="http://www.w3.org/2000/svg" width="32" height="32" viewBox="0 0 32 32">
    <g fill="none" fill-rule="evenodd">
        <path fill="#EBEBEB" fill-rule="nonzero" d="M15-.5C6.44-.5-.5 6.44-.5 15c0 8.56 6.94 15.5 15.5 15.5 8.56 0 15.5-6.94 15.5-15.5C30.5 6.44 23.56-.5 15-.5zm0 1C23.008.5 29.5 6.992 29.5 15S23.008 29.5 15 29.5.5 23.008.5 15 6.992.5 15 .5z" transform="translate(1 1)"/>
        <path fill="#4267B2" d="M18.69 8.503L16.774 8.5c-2.154 0-3.545 1.43-3.545 3.644v1.318H11.3c-.166 0-.301.135-.301.302v2.434c0 .167.135.302.301.302h1.928v5.2c0 .167.134.302.301.302h2.514c.167 0 .302-.136.302-.302v-5.2h2.253c.167 0 .302-.135.302-.302v-2.434c0-.08-.031-.157-.088-.214-.056-.056-.133-.088-.213-.088h-2.254V12.4c0-.685.163-1.032 1.053-1.032h1.291c.166 0 .301-.136.301-.303v-2.26c0-.167-.134-.302-.3-.302z" transform="translate(1 1)"/>
    </g>
</svg>
