<svg xmlns="http://www.w3.org/2000/svg" width="32" height="32" viewBox="0 0 32 32">
    <g fill="none" fill-rule="evenodd">
        <path fill="#EBEBEB" fill-rule="nonzero" d="M15-.5C6.44-.5-.5 6.44-.5 15c0 8.56 6.94 15.5 15.5 15.5 8.56 0 15.5-6.94 15.5-15.5C30.5 6.44 23.56-.5 15-.5zm0 1C23.008.5 29.5 6.992 29.5 15S23.008 29.5 15 29.5.5 23.008.5 15 6.992.5 15 .5z" transform="translate(1 1)"/>
        <path fill="#23DBA4" d="M15.25 18.883c-1.033 0-1.873-.84-1.873-1.874 0-1.034.84-1.873 1.873-1.873 1.034 0 1.873.84 1.873 1.873 0 1.035-.839 1.874-1.873 1.874m.642-6.409s-1.299 0-2.478 1.147V9H10.5v12.143h2.945v-.952s.694 1.255 2.447 1.255c0 0 4.108-.151 4.108-4.531 0 0-.152-4.44-4.108-4.44" transform="translate(1 1)"/>
    </g>
</svg>
