<svg xmlns="http://www.w3.org/2000/svg" xmlns:xlink="http://www.w3.org/1999/xlink" width="90" height="36" viewBox="0 0 90 36">
    <defs>
        <path id="prefix__a" d="M0 0.187L20.356 0.187 20.356 24.089 0 24.089z"/>
        <path id="prefix__c" d="M0.132 0.187L21.001 0.187 21.001 24.15 0.132 24.15z"/>
        <path id="prefix__e" d="M0.004 0.187L23.875 0.187 23.875 24.09 0.004 24.09z"/>
        <path id="prefix__g" d="M-0.001 0.187L17.326 0.187 17.326 24.089 -0.001 24.089z"/>
        <path id="prefix__i" d="M0.015 0.214L4.098 0.214 4.098 4.777 0.015 4.777z"/>
        <path id="prefix__k" d="M0.234 0.207L4.769 0.207 4.769 4.777 0.234 4.777z"/>
        <path id="prefix__m" d="M0.236 0.207L4.772 0.207 4.772 4.777 0.236 4.777z"/>
        <path id="prefix__o" d="M0 35.512L89.884 35.512 89.884 0.251 0 0.251z"/>
    </defs>
    <g fill="none" fill-rule="evenodd">
        <g transform="translate(0 .065)">
            <mask id="prefix__b" fill="#fff">
                <use xlink:href="#prefix__a"/>
            </mask>
            <path fill="#BBB" d="M20.356 24.09l-4.603-8.614c2.75-1.334 4.21-3.762 4.21-6.818 0-4.886-3.486-8.471-9.77-8.471H0v23.902h5.995V5.6h3.87c2.253 0 3.373 1.092 3.452 3.058.023.599-.084 1.2-.329 1.748-.229.51-.572.965-.99 1.337-.418.371-.908.66-1.43.857-.552.207-1.128.302-1.716.306-.416 0-.831.007-1.247-.012l5.99 11.195h6.761z" mask="url(#prefix__b)"/>
        </g>
        <g transform="translate(68.883 .065)">
            <mask id="prefix__d" fill="#fff">
                <use xlink:href="#prefix__c"/>
            </mask>
            <path fill="#BBB" d="M11.907 24.09c3.017-.248 5.995-1.392 7.673-4.036C20.617 18.42 21 16.466 21 14.551V.187H14.67L14.67 14.6c0 2.202-1.734 3.99-3.956 4.125-2.325.142-4.252-1.804-4.252-4.134L6.46.187H.13v14.364c0 1.826.348 3.686 1.282 5.274.828 1.409 2.085 2.5 3.557 3.198 2.129 1.011 4.609 1.26 6.937 1.067" mask="url(#prefix__d)"/>
        </g>
        <g transform="translate(42.737 .065)">
            <mask id="prefix__f" fill="#fff">
                <use xlink:href="#prefix__e"/>
            </mask>
            <path fill="#BBB" d="M11.908 14.774L6.51 0.187 0.004 0.187 9.6 24.09 14.407 24.09 23.875 0.187 17.343 0.187z" mask="url(#prefix__f)"/>
        </g>
        <g transform="translate(23.128 .065)">
            <mask id="prefix__h" fill="#fff">
                <use xlink:href="#prefix__g"/>
            </mask>
            <path fill="#BBB" d="M6.111 14.599L16.37 14.599 16.37 9.501 6.111 9.501 6.111 5.035 17.326 5.035 17.326 0.187 -0.001 0.187 -0.001 24.089 17.326 24.089 17.326 19.258 6.111 19.258z" mask="url(#prefix__h)"/>
        </g>
        <g transform="translate(13.575 30.735)">
            <mask id="prefix__j" fill="#fff">
                <use xlink:href="#prefix__i"/>
            </mask>
            <path fill="#BBB" d="M.015 2.492C.015 1.163 1.024.214 2.274.214c.788 0 1.371.294 1.76.883l-.525.38c-.246-.386-.66-.642-1.235-.642-.913 0-1.56.708-1.56 1.657 0 .949.647 1.663 1.56 1.663.607 0 1.015-.275 1.3-.701l.524.373c-.382.59-1.003.95-1.824.95-1.25 0-2.259-.956-2.259-2.285" mask="url(#prefix__j)"/>
        </g>
        <g transform="translate(19.609 30.735)">
            <mask id="prefix__l" fill="#fff">
                <use xlink:href="#prefix__k"/>
            </mask>
            <path fill="#BBB" d="M4.07 2.492c0-.95-.646-1.663-1.565-1.663-.92 0-1.573.714-1.573 1.663 0 .949.654 1.663 1.573 1.663.919 0 1.566-.714 1.566-1.663m-3.837 0C.234 1.163 1.242.207 2.505.207c1.255 0 2.264.956 2.264 2.285 0 1.329-1.009 2.285-2.264 2.285-1.263 0-2.271-.956-2.271-2.285" mask="url(#prefix__l)"/>
        </g>
        <path fill="#BBB" d="M28.373 33.22c.582 0 .918-.242.918-.805 0-.576-.343-.805-.918-.805h-.764v1.61h.764zm-1.45-2.219H28.4c.905 0 1.598.432 1.598 1.414 0 .661-.356 1.087-.893 1.277l1.035 1.76h-.783l-.951-1.65h-.796v1.65h-.686v-4.451zM34.075 33.266c.595 0 .926-.268.926-.831 0-.57-.337-.825-.926-.825h-.705v1.656h.705zM32.685 31H34.1c.92 0 1.598.458 1.598 1.434 0 .969-.679 1.44-1.598 1.44h-.731v1.578h-.686V31z"/>
        <g transform="translate(37.71 30.735)">
            <mask id="prefix__n" fill="#fff">
                <use xlink:href="#prefix__m"/>
            </mask>
            <path fill="#BBB" d="M4.073 2.492c0-.95-.647-1.663-1.566-1.663-.92 0-1.573.714-1.573 1.663 0 .949.654 1.663 1.573 1.663.919 0 1.566-.714 1.566-1.663m-3.837 0C.236 1.163 1.244.207 2.507.207c1.255 0 2.265.956 2.265 2.285 0 1.329-1.01 2.285-2.265 2.285-1.263 0-2.271-.956-2.271-2.285" mask="url(#prefix__n)"/>
        </g>
        <path fill="#BBB" d="M46.476 33.22c.582 0 .919-.242.919-.805 0-.576-.344-.805-.92-.805h-.763v1.61h.764zm-1.45-2.219h1.476c.906 0 1.598.432 1.598 1.414 0 .661-.356 1.087-.893 1.277l1.035 1.76h-.783l-.95-1.65h-.797v1.65h-.686v-4.451zM52.165 32.854l-.479 1.21h1.39l-.682-1.81-.23.6zm.14-1.899h.172l1.882 4.498h-.712l-.324-.812h-1.87l-.324.812h-.66l1.836-4.498zM57.366 31.61L56.059 31.61 56.059 31.001 59.353 31.001 59.353 31.61 58.046 31.61 58.046 35.453 57.366 35.453z"/>
        <mask id="prefix__p" fill="#fff">
            <use xlink:href="#prefix__o"/>
        </mask>
        <path fill="#BBB" d="M62.174 35.453L62.854 35.453 62.854 31.001 62.174 31.001zM69.535 33.227c0-.95-.646-1.663-1.565-1.663-.92 0-1.573.714-1.573 1.663 0 .949.653 1.663 1.573 1.663.919 0 1.565-.714 1.565-1.663m-3.837 0c0-1.329 1.01-2.285 2.272-2.285 1.255 0 2.264.956 2.264 2.285 0 1.329-1.009 2.285-2.264 2.285-1.263 0-2.272-.956-2.272-2.285M73.782 32.854c-.175-.19-.368-.428-.368-.428v3.027h-.635v-4.498h.172l2.345 2.638c.169.184.365.428.365.428s-.003-.323-.003-.572v-2.448h.635v4.498h-.172l-2.34-2.645z" mask="url(#prefix__p)"/>
    </g>
</svg>
