<svg xmlns="http://www.w3.org/2000/svg" width="32" height="32" viewBox="0 0 32 32">
    <defs>
        <linearGradient id="prefix__a" x1="9.17%" x2="90.014%" y1="90.847%" y2="9.97%">
            <stop offset="0%" stop-color="#FFC107"/>
            <stop offset="50.7%" stop-color="#F44336"/>
            <stop offset="100%" stop-color="#9C27B0"/>
        </linearGradient>
        <linearGradient id="prefix__b" x1="14.646%" x2="84.647%" y1="85.354%" y2="15.353%">
            <stop offset="0%" stop-color="#FFC107"/>
            <stop offset="50.7%" stop-color="#F44336"/>
            <stop offset="100%" stop-color="#9C27B0"/>
        </linearGradient>
        <linearGradient id="prefix__c" x1="14.648%" x2="84.645%" y1="85.361%" y2="15.355%">
            <stop offset="0%" stop-color="#FFC107"/>
            <stop offset="50.7%" stop-color="#F44336"/>
            <stop offset="100%" stop-color="#9C27B0"/>
        </linearGradient>
    </defs>
    <g fill="none">
        <path fill="#EBEBEB" d="M16 .5C7.44.5.5 7.44.5 16c0 8.56 6.94 15.5 15.5 15.5 8.56 0 15.5-6.94 15.5-15.5C31.5 7.44 24.56.5 16 .5zm0 1c8.008 0 14.5 6.492 14.5 14.5S24.008 30.5 16 30.5 1.5 24.008 1.5 16 7.992 1.5 16 1.5z"/>
        <g>
            <path fill="url(#prefix__a)" d="M14.94 4.4c-.035-.795-.164-1.341-.348-1.815-.19-.503-.482-.953-.865-1.328-.375-.38-.828-.675-1.325-.862-.477-.184-1.02-.313-1.816-.348C9.785.009 9.531 0 7.5 0 5.466 0 5.212.009 4.414.044c-.796.035-1.342.164-1.816.348-.503.19-.953.482-1.328.865-.38.375-.675.828-.862 1.325-.184.477-.313 1.02-.348 1.816-.038.8-.047 1.055-.047 3.087 0 2.033.009 2.287.044 3.085.035.795.164 1.342.348 1.816.19.503.485.953.865 1.327.375.38.828.676 1.325.863.477.184 1.02.313 1.816.348.798.035 1.052.044 3.085.044 2.032 0 2.286-.009 3.084-.044.796-.035 1.343-.164 1.816-.348 1.006-.389 1.801-1.184 2.19-2.19.184-.477.313-1.02.348-1.816.035-.798.044-1.052.044-3.085 0-2.032-.003-2.286-.038-3.084zm-1.348 6.112c-.032.73-.155 1.125-.257 1.389-.252.652-.77 1.17-1.421 1.42-.263.103-.661.226-1.39.258-.789.035-1.025.044-3.023.044-1.997 0-2.236-.009-3.023-.044-.731-.032-1.126-.155-1.389-.257-.324-.12-.62-.31-.86-.559-.248-.243-.438-.535-.558-.86-.102-.263-.225-.66-.257-1.388-.035-.79-.044-1.027-.044-3.024s.009-2.237.044-3.023c.032-.731.155-1.126.257-1.389.12-.325.31-.62.562-.86.242-.248.534-.438.86-.558.262-.102.66-.225 1.388-.257.79-.036 1.026-.044 3.023-.044 2 0 2.237.008 3.024.044.73.032 1.126.155 1.389.257.324.12.62.31.86.558.248.243.438.535.558.86.102.263.225.66.257 1.389.035.79.044 1.026.044 3.023s-.009 2.231-.044 3.02z" transform="translate(8.5 8.5)"/>
            <path fill="url(#prefix__b)" d="M7.499 3.64c-2.123 0-3.846 1.723-3.846 3.845 0 2.123 1.723 3.845 3.846 3.845 2.122 0 3.845-1.722 3.845-3.845 0-2.122-1.723-3.845-3.845-3.845zm0 6.34c-1.378 0-2.495-1.117-2.495-2.495 0-1.377 1.117-2.494 2.495-2.494 1.377 0 2.494 1.117 2.494 2.494 0 1.378-1.117 2.495-2.494 2.495z" transform="translate(8.5 8.5)"/>
            <path fill="url(#prefix__c)" d="M12.393 3.59c0 .553-.447 1-1 1-.552 0-1-.447-1-1 0-.552.448-1 1-1 .553 0 1 .448 1 1z" transform="translate(8.5 8.5)"/>
        </g>
    </g>
</svg>
