<svg xmlns="http://www.w3.org/2000/svg" width="108" height="46" viewBox="0 0 108 46">
    <g fill="none" fill-rule="evenodd">
        <path fill="#FFF" d="M16.5 1h75c8.56 0 15.5 6.94 15.5 15.5 0 8.56-6.94 15.5-15.5 15.5h-75C7.94 32 1 25.06 1 16.5 1 7.94 7.94 1 16.5 1z"/>
        <path fill="#666" fill-rule="nonzero" d="M91.5.5h-75C7.663.5.5 7.663.5 16.5s7.163 16 16 16h75c8.837 0 16-7.163 16-16s-7.163-16-16-16zm-75 1h75c8.284 0 15 6.716 15 15 0 8.284-6.716 15-15 15h-75c-8.284 0-15-6.716-15-15 0-8.284 6.716-15 15-15z"/>
        <path fill="#333" fill-rule="nonzero" d="M25.04 22V11.336h-1.846V22h1.846zm3.66 0v-5.64c.351-.65.886-.974 1.603-.974.494 0 .849.121 1.066.363.217.241.326.614.326 1.117V22h1.78v-5.237c-.03-1.89-.87-2.834-2.52-2.834-.952 0-1.72.354-2.307 1.062l-.051-.916H26.92V22h1.78zm9.167.146c.889 0 1.6-.322 2.131-.966l.088.82h1.612V10.75h-1.78v4.058c-.518-.586-1.196-.88-2.036-.88-.952 0-1.712.37-2.278 1.11-.566.74-.85 1.72-.85 2.941 0 1.284.287 2.3.86 3.047.575.747 1.325 1.12 2.253 1.12zm.454-1.45c-.571 0-1.012-.226-1.322-.677-.31-.452-.465-1.08-.465-1.886 0-.918.156-1.605.469-2.062.312-.456.757-.685 1.333-.685.727 0 1.255.318 1.582.952v3.384c-.337.65-.87.974-1.597.974zm8.392 1.45c.732 0 1.378-.168 1.937-.505.559-.337.989-.813 1.289-1.428.3-.615.45-1.314.45-2.095l-.007-.417c-.054-1.138-.414-2.051-1.08-2.74-.667-.688-1.535-1.032-2.604-1.032-.723 0-1.362.167-1.92.501-.556.335-.988.813-1.295 1.436-.308.623-.462 1.322-.462 2.098v.088c0 1.24.336 2.233 1.007 2.978.672.744 1.566 1.116 2.684 1.116zm0-1.42c-.601 0-1.07-.231-1.407-.693-.337-.461-.505-1.1-.505-1.915 0-.918.17-1.608.513-2.069.341-.461.803-.692 1.384-.692.59 0 1.058.234 1.402.703.345.469.517 1.104.517 1.904 0 .904-.167 1.59-.502 2.058-.334.47-.802.704-1.403.704zM53.448 22v-5.64c.351-.65.886-.974 1.604-.974.493 0 .848.121 1.065.363.217.241.326.614.326 1.117V22h1.78v-5.237c-.03-1.89-.87-2.834-2.52-2.834-.952 0-1.72.354-2.307 1.062l-.051-.916h-1.677V22h1.78zm9.878.146c.659 0 1.253-.13 1.783-.391.53-.262.953-.629 1.27-1.103l-.959-.915c-.512.659-1.176.989-1.992.989-.58 0-1.063-.19-1.446-.572-.384-.38-.602-.898-.656-1.552h5.178v-.718c0-1.26-.294-2.234-.882-2.923-.589-.688-1.422-1.032-2.501-1.032-.68 0-1.294.173-1.846.52-.552.346-.98.831-1.286 1.454-.305.622-.457 1.329-.457 2.12v.22c0 1.181.35 2.127 1.05 2.838.701.71 1.616 1.065 2.744 1.065zm1.42-4.848h-3.39c.082-.61.274-1.087.574-1.428.3-.342.695-.513 1.183-.513.493 0 .88.153 1.157.458.279.305.437.755.477 1.351v.132zm5.924 4.848c.957 0 1.73-.22 2.321-.662.591-.442.887-1.02.887-1.733 0-.424-.097-.786-.29-1.084-.193-.297-.488-.552-.886-.765-.398-.212-.946-.395-1.644-.55-.698-.153-1.162-.306-1.392-.457-.23-.151-.344-.364-.344-.637 0-.303.123-.545.37-.725.246-.18.565-.271.956-.271.42 0 .756.113 1.01.34.254.227.381.512.381.854h1.78c0-.748-.292-1.355-.875-1.824-.584-.469-1.35-.703-2.296-.703-.889 0-1.621.23-2.198.688-.576.46-.864 1.03-.864 1.714 0 .815.444 1.438 1.333 1.868.405.195.91.356 1.516.483s1.039.274 1.3.44c.262.166.392.407.392.725 0 .288-.122.52-.366.7-.244.177-.6.266-1.07.266-.483 0-.871-.113-1.164-.34-.293-.227-.452-.55-.476-.97h-1.729c0 .473.142.915.425 1.325.283.41.679.733 1.187.967.508.234 1.086.351 1.736.351zm5.564-9.191c.322 0 .571-.09.747-.268.176-.178.264-.401.264-.67 0-.273-.088-.5-.264-.681-.176-.18-.425-.271-.747-.271-.323 0-.57.09-.744.27-.173.182-.26.409-.26.682 0 .269.087.492.26.67.174.178.421.268.744.268zM77.12 22v-7.925h-1.78V22h1.78zm4.187.146c.82 0 1.514-.295 2.08-.886.059.342.127.589.205.74h1.817v-.125c-.2-.424-.3-.993-.3-1.706v-3.574c-.015-.845-.298-1.5-.85-1.967-.552-.466-1.292-.7-2.22-.7-.61 0-1.163.108-1.658.323-.496.215-.888.511-1.176.89-.288.378-.432.785-.432 1.22h1.78c0-.313.13-.57.388-.773.259-.203.59-.304.996-.304.469 0 .818.123 1.047.37.23.246.345.575.345.985v.52h-1.092c-1.167 0-2.064.226-2.691.677-.628.452-.941 1.1-.941 1.945 0 .669.251 1.23.754 1.684.503.454 1.152.681 1.948.681zm.33-1.428c-.381 0-.685-.101-.912-.304-.227-.202-.34-.475-.34-.816 0-.42.165-.745.497-.974.332-.23.828-.345 1.487-.345h.96v1.494c-.157.289-.39.518-.7.689-.31.17-.64.256-.992.256z"/>
        <path fill="#333" d="M53.975 37.296c-2.195 0-3.975 1.78-3.975 3.976 0 2.195 1.78 3.974 3.975 3.974 2.195 0 3.975-1.779 3.975-3.974 0-2.197-1.78-3.976-3.975-3.976"/>
    </g>
</svg>
