<svg xmlns="http://www.w3.org/2000/svg" width="97" height="39" viewBox="0 0 97 39">
    <g fill="none">
        <rect width="94.481" height="26.455" x="1.26" y="1.26" fill="#FFF" rx="10.5"/>
        <path fill="#666" d="M82.513.63H14.487C6.834.63.63 6.834.63 14.487s6.204 13.857 13.857 13.857h68.026c7.653 0 13.857-6.204 13.857-13.857S90.166.63 82.513.63zM14.487 1.89h68.026c6.957 0 12.597 5.64 12.597 12.597s-5.64 12.597-12.597 12.597H14.487c-6.957 0-12.597-5.64-12.597-12.597S7.53 1.89 14.487 1.89z"/>
        <path fill="#333" d="M15.975 20.156V8.513H13.96v11.643h2.015zm4.214 0v-6.157c.384-.71.967-1.064 1.751-1.064.538 0 .926.132 1.163.396.238.264.356.67.356 1.22v5.605h1.943v-5.718c-.032-2.063-.949-3.094-2.75-3.094-1.04 0-1.88.386-2.52 1.16l-.055-1h-1.831v8.652h1.943zm10.227.16c.97 0 1.746-.352 2.327-1.056l.096.896h1.76V7.873h-1.944v4.43c-.565-.64-1.306-.96-2.223-.96-1.04 0-1.868.405-2.487 1.212-.618.808-.927 1.878-.927 3.21 0 1.403.313 2.512.94 3.327.626.816 1.445 1.224 2.458 1.224zm.496-1.584c-.624 0-1.105-.246-1.443-.74-.339-.492-.508-1.179-.508-2.058 0-1.002.17-1.753.512-2.251.34-.499.826-.748 1.455-.748.794 0 1.37.347 1.727 1.04v3.694c-.368.709-.949 1.063-1.743 1.063zm9.38 1.584c.8 0 1.504-.184 2.115-.552.61-.368 1.08-.888 1.407-1.56.328-.671.492-1.433.492-2.286l-.008-.456c-.059-1.242-.452-2.239-1.18-2.99-.727-.752-1.675-1.128-2.842-1.128-.79 0-1.488.182-2.095.548-.608.365-1.08.887-1.416 1.567-.336.68-.503 1.443-.503 2.29v.097c0 1.354.366 2.437 1.099 3.25.733.813 1.71 1.22 2.93 1.22zm0-1.552c-.656 0-1.168-.251-1.536-.755-.367-.504-.551-1.201-.551-2.091 0-1.002.186-1.755.56-2.26.373-.503.876-.755 1.51-.755.646 0 1.156.256 1.532.768.376.512.564 1.205.564 2.079 0 .986-.183 1.735-.548 2.247-.365.512-.876.767-1.531.767zm7.572 1.392v-6.157c.384-.71.968-1.064 1.751-1.064.539 0 .927.132 1.164.396.237.264.356.67.356 1.22v5.605h1.943v-5.718c-.032-2.063-.949-3.094-2.75-3.094-1.04 0-1.88.386-2.52 1.16l-.056-1h-1.83v8.652h1.942zm11.003.16c.72 0 1.369-.143 1.947-.428.579-.285 1.041-.686 1.388-1.203l-1.048-1c-.56.72-1.284 1.08-2.175 1.08-.634 0-1.16-.208-1.579-.624-.418-.416-.657-.981-.716-1.695h5.654v-.784c0-1.376-.321-2.439-.964-3.19-.642-.752-1.552-1.128-2.73-1.128-.742 0-1.413.19-2.016.568-.602.378-1.07.907-1.403 1.587-.333.68-.5 1.451-.5 2.315v.24c0 1.29.383 2.323 1.148 3.098.765.776 1.763 1.164 2.994 1.164zm1.552-5.294h-3.703c.09-.666.3-1.186.628-1.56.328-.372.758-.559 1.291-.559.539 0 .96.167 1.264.5.304.333.477.825.52 1.475v.144zm6.685 5.294c1.044 0 1.89-.241 2.534-.724.646-.482.968-1.113.968-1.891 0-.464-.105-.858-.316-1.184-.21-.325-.533-.603-.967-.835-.435-.232-1.033-.432-1.796-.6-.762-.168-1.268-.334-1.519-.5-.25-.165-.376-.397-.376-.695 0-.33.135-.595.404-.792.27-.197.617-.296 1.044-.296.458 0 .826.124 1.103.372s.416.558.416.932h1.943c0-.816-.318-1.48-.955-1.992-.638-.511-1.473-.767-2.507-.767-.97 0-1.77.25-2.4.751-.628.502-.943 1.125-.943 1.872 0 .89.485 1.57 1.455 2.039.443.213.995.389 1.656.527.66.14 1.134.299 1.42.48.284.182.427.445.427.792 0 .314-.133.569-.4.764-.266.194-.656.291-1.167.291-.528 0-.952-.124-1.272-.371-.32-.248-.493-.601-.52-1.06H63.45c0 .517.155 1 .464 1.447.31.448.741.8 1.295 1.056.555.256 1.187.384 1.896.384zm6.293-10.036c.352 0 .624-.097.815-.292.192-.194.288-.438.288-.731 0-.299-.096-.547-.288-.744-.191-.197-.463-.296-.815-.296-.352 0-.623.099-.812.296-.19.197-.284.445-.284.744 0 .293.095.537.284.731.19.195.46.292.812.292zm.967 9.876v-8.652h-1.943v8.652h1.943zm4.79.16c.896 0 1.653-.323 2.271-.968.064.373.139.643.224.808h1.983v-.136c-.218-.464-.328-1.085-.328-1.863v-3.902c-.016-.923-.325-1.638-.927-2.148-.603-.509-1.41-.763-2.423-.763-.667 0-1.27.117-1.811.352-.541.234-.97.558-1.284.971-.314.413-.472.857-.472 1.332h1.944c0-.342.14-.623.423-.844.283-.221.645-.332 1.088-.332.512 0 .893.135 1.143.404.25.27.376.628.376 1.075v.568H80.17c-1.274 0-2.254.247-2.939.74s-1.027 1.2-1.027 2.123c0 .73.274 1.343.823 1.84.55.495 1.258.743 2.127.743zm.36-1.56c-.416 0-.748-.11-.996-.331-.247-.222-.371-.519-.371-.892 0-.458.18-.813.543-1.063.363-.251.904-.376 1.624-.376h1.047v1.63c-.17.315-.425.566-.763.753-.339.186-.7.28-1.084.28zM49.034 32.755c-1.469 0-2.66 1.19-2.66 2.66 0 1.47 1.191 2.66 2.66 2.66 1.47 0 2.66-1.19 2.66-2.66 0-1.47-1.19-2.66-2.66-2.66"/>
    </g>
</svg>
