<svg xmlns="http://www.w3.org/2000/svg" width="81" height="39" viewBox="0 0 81 39">
    <g fill="none">
        <rect width="77" height="27.885" x="1.328" y="1.328" fill="#FFF" rx="10.5"/>
        <path fill="#666" d="M65.73.664H15.27C7.204.664.664 7.204.664 15.27c0 8.067 6.54 14.607 14.606 14.607h50.46c8.066 0 14.606-6.54 14.606-14.607 0-8.066-6.54-14.606-14.606-14.606zM15.27 1.992h50.46c7.333 0 13.278 5.945 13.278 13.278 0 7.334-5.945 13.28-13.278 13.28H15.27c-7.333 0-13.278-5.946-13.278-13.28 0-7.333 5.945-13.278 13.278-13.278z"/>
        <path fill="#333" d="M20.642 21.246v-3.827l1.391-1.475 3.692 5.302h2.529l-4.822-6.836 4.56-5.437h-2.579l-3.59 4.3-1.18 1.457V8.973H18.51v12.273h2.132zm12.416.168c.843 0 1.586-.193 2.23-.581.643-.388 1.137-.936 1.483-1.644.345-.708.518-1.511.518-2.41l-.008-.48c-.062-1.31-.476-2.36-1.243-3.153-.767-.793-1.766-1.189-2.997-1.189-.832 0-1.568.193-2.208.578-.64.385-1.138.935-1.492 1.652-.354.716-.531 1.521-.531 2.415v.1c0 1.428.386 2.57 1.159 3.427.772.857 1.802 1.285 3.089 1.285zm0-1.635c-.691 0-1.23-.265-1.618-.796-.388-.531-.582-1.266-.582-2.204 0-1.057.197-1.85.59-2.382.393-.53.924-.796 1.593-.796.68 0 1.218.27 1.614.81.396.539.594 1.269.594 2.19 0 1.04-.192 1.83-.577 2.37-.385.539-.923.808-1.614.808zm8.007 1.467v-6.237c.326-.72.958-1.08 1.897-1.08.286 0 .565.023.834.068l.009-1.922c-.191-.078-.433-.118-.725-.118-.877 0-1.562.396-2.057 1.189l-.05-1.02h-1.956v9.12h2.048zm8.042.168c.758 0 1.442-.15 2.052-.45.61-.301 1.097-.724 1.462-1.269l-1.104-1.054c-.59.759-1.354 1.138-2.292 1.138-.67 0-1.224-.219-1.665-.657-.441-.438-.693-1.034-.755-1.787h5.96v-.826c0-1.45-.339-2.57-1.016-3.363-.677-.793-1.637-1.189-2.878-1.189-.782 0-1.49.2-2.125.599-.635.399-1.128.956-1.479 1.673-.351.716-.527 1.53-.527 2.44v.253c0 1.36.404 2.448 1.21 3.266.806.818 1.858 1.226 3.157 1.226zm1.635-5.58h-3.903c.096-.702.316-1.25.662-1.643.345-.393.8-.59 1.361-.59.568 0 1.012.176 1.332.527.32.35.503.87.548 1.555v.152zm6.43 5.58c.945 0 1.743-.34 2.395-1.02.067.394.146.678.236.852h2.09v-.143c-.23-.49-.346-1.144-.346-1.964v-4.114c-.016-.972-.342-1.726-.977-2.263-.635-.536-1.487-.805-2.554-.805-.703 0-1.339.124-1.91.371-.57.247-1.02.589-1.352 1.024-.332.436-.497.904-.497 1.404h2.048c0-.36.149-.656.446-.89.298-.233.68-.35 1.147-.35.54 0 .941.143 1.205.426.264.284.396.662.396 1.134v.598h-1.256c-1.343 0-2.375.26-3.097.78s-1.083 1.266-1.083 2.238c0 .77.29 1.416.868 1.939.579.522 1.326.783 2.242.783zm.38-1.643c-.438 0-.788-.117-1.05-.35-.26-.233-.391-.546-.391-.94 0-.483.19-.857.573-1.12.382-.265.953-.397 1.711-.397H59.5v1.72c-.18.331-.448.595-.805.792-.356.197-.737.295-1.142.295zM40.026 33.406c-1.55 0-2.804 1.255-2.804 2.804 0 1.548 1.255 2.804 2.804 2.804 1.548 0 2.804-1.256 2.804-2.804 0-1.549-1.256-2.804-2.804-2.804"/>
    </g>
</svg>
