<svg xmlns="http://www.w3.org/2000/svg" width="95" height="46" viewBox="0 0 95 46">
    <g fill="none" fill-rule="evenodd">
        <path fill="#FFF" d="M16.5 1h62C87.06 1 94 7.94 94 16.5v1C94 26.06 87.06 33 78.5 33h-62C7.94 33 1 26.06 1 17.5v-1C1 7.94 7.94 1 16.5 1z"/>
        <path fill="#666" fill-rule="nonzero" d="M78 .5H17C7.887.5.5 7.887.5 17S7.887 33.5 17 33.5h61c9.113 0 16.5-7.387 16.5-16.5S87.113.5 78 .5zm-61 1h61c8.56 0 15.5 6.94 15.5 15.5 0 8.56-6.94 15.5-15.5 15.5H17C8.44 32.5 1.5 25.56 1.5 17 1.5 8.44 8.44 1.5 17 1.5z"/>
        <path fill="#333" fill-rule="nonzero" d="M28.329 23v-3.769l1.37-1.452L33.333 23h2.49l-4.748-6.732 4.49-5.354h-2.54l-3.535 4.233-1.162 1.436v-5.669h-2.1V23h2.1zm12.227.166c.83 0 1.562-.19 2.195-.573.634-.382 1.12-.921 1.461-1.618.34-.698.51-1.489.51-2.374l-.008-.474c-.06-1.289-.469-2.324-1.224-3.104-.755-.78-1.739-1.17-2.95-1.17-.82 0-1.545.19-2.176.568-.63.38-1.12.922-1.469 1.627-.349.706-.523 1.498-.523 2.378v.1c0 1.405.38 2.53 1.141 3.374.761.844 1.775 1.266 3.043 1.266zm0-1.61c-.681 0-1.212-.262-1.594-.785-.382-.523-.573-1.246-.573-2.17 0-1.04.194-1.822.581-2.345.388-.523.91-.785 1.57-.785.669 0 1.199.266 1.589.797.39.531.585 1.25.585 2.158 0 1.024-.19 1.802-.569 2.333-.379.531-.909.797-1.59.797zM48.44 23v-6.143c.321-.708.944-1.062 1.868-1.062.282 0 .556.022.822.066l.008-1.892c-.188-.078-.426-.116-.714-.116-.863 0-1.538.39-2.025 1.17l-.05-1.004h-1.926V23h2.017zm7.92.166c.746 0 1.42-.148 2.02-.444.601-.296 1.081-.713 1.44-1.25l-1.087-1.037c-.58.747-1.333 1.12-2.257 1.12-.659 0-1.205-.215-1.64-.647-.434-.431-.682-1.018-.743-1.76h5.869v-.813c0-1.428-.334-2.532-1-3.312-.667-.78-1.612-1.17-2.835-1.17-.77 0-1.467.196-2.092.589-.625.393-1.11.942-1.457 1.648-.346.705-.518 1.506-.518 2.403v.249c0 1.339.397 2.411 1.19 3.216.795.805 1.831 1.208 3.11 1.208zm1.61-5.495h-3.844c.095-.692.312-1.231.652-1.619.34-.387.787-.58 1.34-.58.56 0 .997.172 1.312.518.316.346.495.856.54 1.531v.15zm6.333 5.495c.93 0 1.716-.335 2.358-1.004.066.387.144.666.232.838h2.059v-.141c-.227-.482-.34-1.126-.34-1.934v-4.051c-.017-.957-.338-1.7-.964-2.229-.625-.528-1.463-.792-2.515-.792-.691 0-1.318.121-1.88.365-.562.243-1.006.58-1.332 1.008-.327.43-.49.89-.49 1.382h2.017c0-.354.147-.646.44-.875.293-.23.67-.345 1.13-.345.53 0 .926.14 1.186.42.26.279.39.651.39 1.116v.59h-1.237c-1.322 0-2.339.255-3.05.767-.711.512-1.067 1.247-1.067 2.204 0 .758.285 1.394.855 1.909.57.515 1.306.772 2.208.772zm.374-1.619c-.432 0-.776-.114-1.034-.344-.257-.23-.386-.538-.386-.926 0-.476.188-.844.565-1.104.376-.26.938-.39 1.685-.39h1.087v1.694c-.177.326-.441.586-.793.78-.35.194-.726.29-1.124.29z"/>
        <path fill="#333" d="M46.975 37.943c-2.196 0-3.975 1.78-3.975 3.975 0 2.195 1.779 3.975 3.975 3.975 2.195 0 3.975-1.78 3.975-3.975 0-2.195-1.78-3.975-3.975-3.975"/>
    </g>
</svg>
