<svg xmlns="http://www.w3.org/2000/svg" width="119" height="46" viewBox="0 0 119 46">
    <g fill="none" fill-rule="evenodd">
        <path fill="#FFF" d="M16.5 1h86c8.56 0 15.5 6.94 15.5 15.5 0 8.56-6.94 15.5-15.5 15.5h-86C7.94 32 1 25.06 1 16.5 1 7.94 7.94 1 16.5 1z"/>
        <path fill="#666" fill-rule="nonzero" d="M102.5.5h-86C7.663.5.5 7.663.5 16.5s7.163 16 16 16h86c8.837 0 16-7.163 16-16s-7.163-16-16-16zm-86 1h86c8.284 0 15 6.716 15 15 0 8.284-6.716 15-15 15h-86c-8.284 0-15-6.716-15-15 0-8.284 6.716-15 15-15z"/>
        <path fill="#333" fill-rule="nonzero" d="M25.937 22v-3.962h2.205c1.235 0 2.196-.29 2.882-.872.686-.581 1.029-1.394 1.029-2.439 0-1.02-.35-1.84-1.051-2.46-.701-.621-1.647-.931-2.838-.931h-4.08V22h1.853zm2.227-5.45h-2.227v-3.72h2.278c.615.01 1.098.187 1.45.531.352.344.527.805.527 1.38 0 .587-.173 1.035-.52 1.345-.346.31-.85.465-1.508.465zm6.89 5.45v-5.662c.351-.634.883-.952 1.596-.952.46 0 .807.114 1.044.34.237.228.355.615.355 1.162V22h1.78v-5.178c-.025-1.929-.882-2.893-2.571-2.893-.889 0-1.624.337-2.205 1.01V10.75h-1.78V22h1.78zm7.38-9.045c.322 0 .571-.09.747-.268.176-.178.264-.401.264-.67 0-.273-.088-.5-.264-.681-.176-.18-.425-.271-.747-.271s-.57.09-.743.27c-.174.182-.26.409-.26.682 0 .269.086.492.26.67.173.178.42.268.743.268zM43.32 22v-7.925h-1.78V22h1.78zm3.63 0V10.75h-1.779V22h1.78zm2.745-9.045c.322 0 .571-.09.747-.268.176-.178.264-.401.264-.67 0-.273-.088-.5-.264-.681-.176-.18-.425-.271-.747-.271s-.57.09-.743.27c-.174.182-.26.409-.26.682 0 .269.086.492.26.67.173.178.42.268.743.268zM50.581 22v-7.925h-1.78V22h1.78zm3.514 3.047V21.29c.522.57 1.218.856 2.087.856.938 0 1.685-.365 2.241-1.094.557-.73.835-1.708.835-2.934v-.11c0-1.279-.274-2.279-.824-2.999-.549-.72-1.307-1.08-2.274-1.08-.898 0-1.609.317-2.131.952l-.073-.806h-1.641v10.972h1.78zm1.582-4.321c-.733 0-1.26-.308-1.582-.923v-3.516c.317-.6.84-.9 1.567-.9.586 0 1.036.231 1.351.695.315.464.473 1.091.473 1.882 0 .928-.16 1.62-.48 2.077-.32.456-.763.685-1.33.685zm6.663 4.32V21.29c.522.57 1.218.856 2.087.856.937 0 1.685-.365 2.241-1.094.557-.73.835-1.708.835-2.934v-.11c0-1.279-.275-2.279-.824-2.999-.55-.72-1.307-1.08-2.274-1.08-.898 0-1.609.317-2.131.952l-.074-.806h-1.64v10.972h1.78zm1.582-4.32c-.733 0-1.26-.308-1.582-.923v-3.516c.317-.6.84-.9 1.567-.9.586 0 1.036.231 1.351.695.315.464.473 1.091.473 1.882 0 .928-.16 1.62-.48 2.077-.32.456-.763.685-1.33.685zm5.893-7.771c.323 0 .572-.09.747-.268.176-.178.264-.401.264-.67 0-.273-.088-.5-.264-.681-.175-.18-.424-.271-.747-.271-.322 0-.57.09-.743.27-.173.182-.26.409-.26.682 0 .269.087.492.26.67.173.178.421.268.743.268zM70.702 22v-7.925h-1.78V22h1.78zm3.491 0v-5.64c.352-.65.886-.974 1.604-.974.493 0 .848.121 1.066.363.217.241.326.614.326 1.117V22h1.78v-5.237c-.03-1.89-.87-2.834-2.52-2.834-.952 0-1.721.354-2.307 1.062l-.052-.916h-1.677V22h1.78zm9.878.146c.66 0 1.254-.13 1.784-.391.53-.262.953-.629 1.27-1.103l-.96-.915c-.512.659-1.176.989-1.991.989-.581 0-1.064-.19-1.447-.572-.383-.38-.602-.898-.655-1.552h5.178v-.718c0-1.26-.294-2.234-.883-2.923-.588-.688-1.422-1.032-2.501-1.032-.679 0-1.294.173-1.846.52-.551.346-.98.831-1.285 1.454-.305.622-.458 1.329-.458 2.12v.22c0 1.181.35 2.127 1.051 2.838.7.71 1.615 1.065 2.743 1.065zm1.421-4.848h-3.391c.083-.61.275-1.087.575-1.428.3-.342.694-.513 1.183-.513.493 0 .879.153 1.157.458.278.305.437.755.476 1.351v.132zm5.923 4.848c.957 0 1.731-.22 2.322-.662.59-.442.886-1.02.886-1.733 0-.424-.096-.786-.29-1.084-.192-.297-.488-.552-.885-.765-.398-.212-.947-.395-1.645-.55-.698-.153-1.162-.306-1.391-.457-.23-.151-.345-.364-.345-.637 0-.303.124-.545.37-.725.247-.18.565-.271.956-.271.42 0 .757.113 1.01.34.255.227.382.512.382.854h1.78c0-.748-.292-1.355-.876-1.824-.583-.469-1.349-.703-2.296-.703-.889 0-1.621.23-2.197.688-.576.46-.864 1.03-.864 1.714 0 .815.444 1.438 1.333 1.868.405.195.91.356 1.516.483.605.127 1.038.274 1.3.44.26.166.392.407.392.725 0 .288-.123.52-.367.7-.244.177-.6.266-1.069.266-.483 0-.872-.113-1.165-.34-.293-.227-.451-.55-.476-.97h-1.728c0 .473.141.915.425 1.325.283.41.678.733 1.186.967.508.234 1.087.351 1.736.351z"/>
        <path fill="#333" d="M60.115 37.603c-2.196 0-3.976 1.78-3.976 3.976 0 2.195 1.78 3.974 3.976 3.974 2.195 0 3.975-1.78 3.975-3.974 0-2.196-1.78-3.976-3.975-3.976"/>
    </g>
</svg>
