<svg xmlns="http://www.w3.org/2000/svg" width="103" height="36" viewBox="0 0 103 36">
    <g fill="none">
        <rect width="100.518" height="26.06" x="1.241" y="1.241" fill="#FFF" rx="10.5"/>
        <path fill="#666" d="M88.729.62H14.27C6.732.62.621 6.732.621 14.271c0 7.54 6.111 13.65 13.65 13.65H88.73c7.539 0 13.65-6.11 13.65-13.65 0-7.539-6.111-13.65-13.65-13.65zM14.27 1.861H88.73c6.854 0 12.41 5.556 12.41 12.41s-5.556 12.41-12.41 12.41H14.27c-6.854 0-12.41-5.556-12.41-12.41s5.556-12.41 12.41-12.41z"/>
        <path fill="#333" d="M14.725 19.855v-4.261h2.371c1.329 0 2.362-.313 3.1-.938.738-.624 1.107-1.499 1.107-2.623 0-1.097-.377-1.98-1.13-2.646-.754-.667-1.772-1-3.053-1h-4.388v11.468h1.993zm2.395-5.86h-2.395V9.993h2.45c.662.01 1.182.201 1.56.571.378.37.567.865.567 1.485 0 .63-.187 1.112-.56 1.446-.372.333-.913.5-1.622.5zm7.625 5.86v-6.089c.378-.682.95-1.024 1.717-1.024.494 0 .868.122 1.123.367.254.244.382.66.382 1.248v5.498h1.914v-5.569c-.026-2.074-.948-3.111-2.765-3.111-.956 0-1.746.362-2.371 1.087V7.756h-1.914v12.1h1.914zm8.153-9.728c.347 0 .614-.096.803-.287.19-.192.284-.432.284-.721 0-.294-.095-.538-.284-.733-.189-.194-.456-.291-.803-.291-.347 0-.613.097-.8.291-.186.195-.28.439-.28.733 0 .289.094.529.28.72.187.192.453.288.8.288zm.953 9.728v-8.523h-1.914v8.523h1.914zm4.12 0V7.756h-1.914v12.1h1.914zm3.167-9.728c.346 0 .614-.096.803-.287.19-.192.284-.432.284-.721 0-.294-.095-.538-.284-.733-.189-.194-.457-.291-.803-.291-.347 0-.614.097-.8.291-.186.195-.28.439-.28.733 0 .289.094.529.28.72.186.192.453.288.8.288zm.953 9.728v-8.523h-1.914v8.523h1.914zm3.993 3.277v-4.04c.562.614 1.31.921 2.245.921 1.009 0 1.812-.393 2.41-1.178.6-.785.899-1.836.899-3.155v-.118c0-1.376-.296-2.45-.886-3.225-.591-.775-1.406-1.162-2.446-1.162-.966 0-1.73.341-2.292 1.024l-.08-.867H44.17v11.8h1.914zm1.702-4.647c-.788 0-1.355-.331-1.702-.993v-3.78c.342-.647.904-.97 1.686-.97.63 0 1.115.25 1.453.749.34.499.509 1.173.509 2.024 0 .998-.172 1.742-.516 2.233-.344.491-.82.737-1.43.737zm7.38 4.647v-4.04c.563.614 1.311.921 2.246.921 1.008 0 1.812-.393 2.41-1.178.599-.785.898-1.836.898-3.155v-.118c0-1.376-.295-2.45-.886-3.225-.59-.775-1.406-1.162-2.446-1.162-.966 0-1.73.341-2.292 1.024l-.079-.867h-1.764v11.8h1.914zm1.702-4.647c-.787 0-1.355-.331-1.701-.993v-3.78c.341-.647.903-.97 1.686-.97.63 0 1.114.25 1.453.749.339.499.508 1.173.508 2.024 0 .998-.172 1.742-.516 2.233-.344.491-.82.737-1.43.737zm6.554-8.358c.347 0 .615-.096.804-.287.189-.192.283-.432.283-.721 0-.294-.094-.538-.283-.733-.19-.194-.457-.291-.804-.291-.346 0-.613.097-.8.291-.186.195-.279.439-.279.733 0 .289.093.529.28.72.186.192.453.288.8.288zm.953 9.728v-8.523h-1.914v8.523h1.914zm3.97 0V13.79c.379-.698.954-1.048 1.726-1.048.53 0 .912.13 1.146.39.233.26.35.66.35 1.201v5.522h1.914v-5.632c-.031-2.032-.934-3.048-2.71-3.048-1.023 0-1.85.38-2.48 1.142l-.056-.985h-1.804v8.523h1.914zm10.84.158c.708 0 1.348-.14 1.918-.421.57-.281 1.025-.677 1.366-1.186l-1.032-.985c-.551.71-1.265 1.064-2.142 1.064-.625 0-1.144-.205-1.556-.615-.412-.41-.647-.966-.705-1.67h5.57v-.772c0-1.354-.317-2.402-.95-3.143-.633-.74-1.53-1.11-2.69-1.11-.73 0-1.392.186-1.985.559-.594.373-1.054.894-1.383 1.564-.328.67-.492 1.43-.492 2.28v.236c0 1.271.377 2.289 1.13 3.053.754.764 1.737 1.146 2.95 1.146zm1.528-5.215h-3.648c.09-.656.296-1.168.619-1.536.323-.367.747-.551 1.272-.551.53 0 .945.164 1.245.492.299.328.47.813.512 1.453v.142zm6.585 5.215c1.03 0 1.862-.238 2.497-.713.635-.475.953-1.096.953-1.863 0-.457-.104-.845-.31-1.166-.208-.32-.526-.594-.954-.823-.428-.228-1.018-.425-1.769-.59-.75-.166-1.25-.33-1.496-.493-.247-.163-.37-.391-.37-.685 0-.326.132-.586.397-.78.266-.194.608-.292 1.028-.292.452 0 .814.122 1.087.367.273.244.41.55.41.917h1.914c0-.803-.314-1.457-.941-1.961-.628-.504-1.45-.756-2.47-.756-.955 0-1.743.247-2.363.74-.62.494-.93 1.108-.93 1.843 0 .877.479 1.547 1.434 2.01.436.21.98.383 1.63.519.652.137 1.118.294 1.4.473.28.178.42.438.42.78 0 .31-.13.56-.393.752-.263.191-.646.287-1.15.287-.52 0-.938-.122-1.253-.366-.315-.244-.486-.592-.512-1.044h-1.859c0 .51.152.985.457 1.426.305.441.73.788 1.276 1.04s1.169.378 1.867.378zM51.77 30.607c-1.448 0-2.621 1.174-2.621 2.621s1.173 2.62 2.621 2.62c1.447 0 2.62-1.173 2.62-2.62s-1.173-2.62-2.62-2.62"/>
    </g>
</svg>
