<svg xmlns="http://www.w3.org/2000/svg" width="98" height="47" viewBox="0 0 98 47">
    <g fill="none" fill-rule="evenodd">
        <rect width="98" height="31" y="1" fill="#FFF" rx="15.5"/>
        <path fill="#666" fill-rule="nonzero" d="M82 .5H16C7.163.5 0 7.663 0 16.5s7.163 16 16 16h66c8.837 0 16-7.163 16-16S90.837.5 82 .5zm-66 1h66c8.284 0 15 6.716 15 15 0 8.284-6.716 15-15 15H16c-8.284 0-15-6.716-15-15 0-8.284 6.716-15 15-15z"/>
        <path fill="#333" fill-rule="nonzero" d="M26.464 22v-9.17h3.325v-1.494h-8.46v1.494h3.296V22h1.839zm6.106 0v-5.662c.352-.634.884-.952 1.597-.952.459 0 .807.114 1.043.34.237.228.356.615.356 1.162V22h1.78v-5.178c-.025-1.929-.882-2.893-2.571-2.893-.89 0-1.624.337-2.205 1.01V10.75h-1.78V22h1.78zm8.823.146c.82 0 1.514-.295 2.08-.886.06.342.127.589.206.74h1.816v-.125c-.2-.424-.3-.993-.3-1.706v-3.574c-.015-.845-.298-1.5-.85-1.967-.552-.466-1.291-.7-2.22-.7-.61 0-1.162.108-1.658.323-.496.215-.888.511-1.176.89-.288.378-.432.785-.432 1.22h1.78c0-.313.13-.57.388-.773.259-.203.591-.304.996-.304.47 0 .818.123 1.048.37.23.246.344.575.344.985v.52h-1.091c-1.167 0-2.065.226-2.692.677-.627.452-.941 1.1-.941 1.945 0 .669.251 1.23.754 1.684.503.454 1.153.681 1.948.681zm.33-1.428c-.38 0-.685-.101-.912-.304-.227-.202-.34-.475-.34-.816 0-.42.166-.745.498-.974.332-.23.827-.345 1.486-.345h.96v1.494c-.156.289-.39.518-.7.689-.31.17-.64.256-.992.256zm6.143-7.763c.322 0 .571-.09.747-.268.176-.178.264-.401.264-.67 0-.273-.088-.5-.264-.681-.176-.18-.425-.271-.747-.271s-.57.09-.744.27c-.173.182-.26.409-.26.682 0 .269.087.492.26.67.174.178.422.268.744.268zM48.752 22v-7.925h-1.78V22h1.78zm3.63 0V10.75h-1.78V22h1.78zm4.188.146c.82 0 1.513-.295 2.08-.886.058.342.127.589.205.74h1.816v-.125c-.2-.424-.3-.993-.3-1.706v-3.574c-.015-.845-.298-1.5-.85-1.967-.551-.466-1.291-.7-2.219-.7-.61 0-1.163.108-1.659.323-.495.215-.887.511-1.175.89-.288.378-.432.785-.432 1.22h1.78c0-.313.129-.57.388-.773.258-.203.59-.304.996-.304.468 0 .818.123 1.047.37.23.246.344.575.344.985v.52H57.5c-1.167 0-2.064.226-2.692.677-.627.452-.94 1.1-.94 1.945 0 .669.25 1.23.754 1.684.503.454 1.152.681 1.948.681zm.33-1.428c-.381 0-.685-.101-.912-.304-.228-.202-.341-.475-.341-.816 0-.42.166-.745.498-.974.332-.23.828-.345 1.487-.345h.96v1.494c-.157.289-.39.518-.7.689-.31.17-.641.256-.993.256zM63.79 22v-5.64c.35-.65.885-.974 1.603-.974.493 0 .849.121 1.066.363.217.241.326.614.326 1.117V22h1.78v-5.237c-.03-1.89-.87-2.834-2.52-2.834-.952 0-1.721.354-2.307 1.062l-.051-.916h-1.678V22h1.78zm9.167.146c.889 0 1.6-.322 2.131-.966l.088.82h1.611V10.75h-1.78v4.058c-.517-.586-1.196-.88-2.035-.88-.953 0-1.712.37-2.278 1.11-.567.74-.85 1.72-.85 2.941 0 1.284.287 2.3.86 3.047.574.747 1.325 1.12 2.253 1.12zm.454-1.45c-.571 0-1.012-.226-1.322-.677-.31-.452-.465-1.08-.465-1.886 0-.918.156-1.605.469-2.062.312-.456.757-.685 1.333-.685.727 0 1.255.318 1.582.952v3.384c-.337.65-.87.974-1.597.974z"/>
        <path fill="#333" d="M49.857 38.25c-2.195 0-3.975 1.78-3.975 3.976 0 2.195 1.78 3.974 3.975 3.974 2.195 0 3.975-1.779 3.975-3.974 0-2.196-1.78-3.976-3.975-3.976"/>
    </g>
</svg>
