<svg xmlns="http://www.w3.org/2000/svg" width="85" height="38" viewBox="0 0 85 38">
    <g fill="none">
        <rect width="82.385" height="27.462" x="1.308" y="1.308" fill="#FFF" rx="10.5"/>
        <path fill="#666" d="M69.962.654H15.038C7.094.654.654 7.094.654 15.038c0 7.945 6.44 14.385 14.384 14.385h54.924c7.944 0 14.384-6.44 14.384-14.385 0-7.944-6.44-14.384-14.384-14.384zM15.038 1.962h54.924c7.222 0 13.076 5.854 13.076 13.076 0 7.223-5.854 13.077-13.076 13.077H15.038c-7.222 0-13.076-5.854-13.076-13.077 0-7.222 5.854-13.076 13.076-13.076z"/>
        <path fill="#333" d="M20.577 20.923V10.53h3.769V8.837h-9.588v1.693h3.736v10.393h2.083zm7.936.166c.93 0 1.715-.335 2.357-1.004.066.387.144.667.232.838h2.059v-.141c-.227-.481-.34-1.126-.34-1.934v-4.05c-.017-.958-.338-1.701-.963-2.23-.626-.528-1.464-.792-2.515-.792-.692 0-1.319.121-1.88.365-.562.243-1.006.58-1.333 1.008-.326.43-.49.89-.49 1.382h2.018c0-.354.146-.646.44-.875.293-.23.67-.345 1.128-.345.532 0 .927.14 1.187.42.26.279.39.651.39 1.116v.59h-1.236c-1.323 0-2.34.255-3.05.767-.712.512-1.067 1.247-1.067 2.204 0 .758.285 1.394.855 1.91.57.514 1.306.771 2.208.771zm.373-1.619c-.432 0-.776-.114-1.033-.344-.258-.23-.386-.538-.386-.926 0-.475.188-.843.564-1.104.376-.26.938-.39 1.685-.39h1.088V18.4c-.178.326-.442.586-.793.78-.352.194-.726.29-1.125.29zm7.189-8.798c.365 0 .647-.101.846-.303.2-.202.3-.456.3-.76 0-.31-.1-.567-.3-.772-.199-.205-.481-.307-.846-.307-.366 0-.647.102-.843.307-.196.205-.295.462-.295.772 0 .304.099.558.295.76.196.202.477.303.843.303zm1.004 10.251v-8.981h-2.017v8.981h2.017zm5.553 0l1.893-6.167 1.926 6.167h1.66l2.448-8.981h-1.967l-1.428 6.2-1.867-6.2h-1.52l-1.842 6.134-1.453-6.134h-1.967l2.457 8.981h1.66zm12.053.166c.93 0 1.715-.335 2.357-1.004.067.387.144.667.233.838h2.058v-.141c-.227-.481-.34-1.126-.34-1.934v-4.05c-.017-.958-.338-1.701-.963-2.23-.625-.528-1.464-.792-2.515-.792-.692 0-1.318.121-1.88.365-.562.243-1.006.58-1.332 1.008-.327.43-.49.89-.49 1.382h2.017c0-.354.147-.646.44-.875.293-.23.67-.345 1.129-.345.531 0 .927.14 1.187.42.26.279.39.651.39 1.116v.59h-1.237c-1.322 0-2.34.255-3.05.767-.712.512-1.067 1.247-1.067 2.204 0 .758.285 1.394.855 1.91.57.514 1.306.771 2.208.771zm.373-1.619c-.431 0-.776-.114-1.033-.344-.257-.23-.386-.538-.386-.926 0-.475.188-.843.564-1.104.377-.26.938-.39 1.686-.39h1.087V18.4c-.177.326-.441.586-.793.78-.351.194-.726.29-1.125.29zm8.036 1.453v-6.392c.398-.736 1.004-1.104 1.817-1.104.56 0 .962.137 1.208.411.246.274.37.696.37 1.266v5.82h2.017v-5.936c-.033-2.142-.985-3.212-2.856-3.212-1.079 0-1.95.4-2.615 1.203l-.058-1.037h-1.9v8.981h2.017zM42.082 32.243c-1.525 0-2.762 1.236-2.762 2.762 0 1.525 1.237 2.76 2.762 2.76 1.524 0 2.761-1.235 2.761-2.76 0-1.526-1.237-2.762-2.761-2.762"/>
    </g>
</svg>
