<svg xmlns="http://www.w3.org/2000/svg" width="90" height="39" viewBox="0 0 90 39">
    <g fill="none">
        <rect width="87.465" height="26.62" x="1.268" y="1.268" fill="#FFF" rx="10.5"/>
        <path fill="#666" d="M75.423.634H14.577C6.877.634.634 6.877.634 14.577c0 7.701 6.243 13.944 13.943 13.944h60.846c7.7 0 13.943-6.243 13.943-13.944 0-7.7-6.243-13.943-13.943-13.943zM14.577 1.9h60.846c7 0 12.676 5.676 12.676 12.676 0 7.001-5.676 12.677-12.676 12.677H14.577c-7 0-12.676-5.676-12.676-12.677 0-7 5.676-12.676 12.676-12.676z"/>
        <path fill="#333" d="M44.547 33.047c-1.478 0-2.677 1.199-2.677 2.678 0 1.478 1.2 2.676 2.677 2.676 1.478 0 2.677-1.198 2.677-2.676 0-1.48-1.199-2.678-2.677-2.678M19.07 20.282V10.208h3.654V8.566H13.43v1.642h3.621v10.074h2.02zm6.929 0v-6.22c.386-.697.97-1.046 1.754-1.046.504 0 .886.125 1.146.374.26.25.39.675.39 1.275v5.617h1.956v-5.69c-.027-2.118-.968-3.177-2.824-3.177-.977 0-1.784.37-2.422 1.11V7.923h-1.956v12.359H26zm9.913.16c.9 0 1.663-.324 2.285-.973.064.376.14.646.225.813h1.996v-.137c-.22-.467-.33-1.092-.33-1.875v-3.926c-.016-.929-.327-1.649-.934-2.16-.606-.513-1.418-.77-2.438-.77-.67 0-1.278.119-1.822.355-.545.236-.975.562-1.292.977-.316.416-.474.863-.474 1.34h1.955c0-.343.142-.626.426-.849.285-.222.65-.334 1.095-.334.515 0 .898.136 1.15.407.252.27.378.631.378 1.082v.571h-1.198c-1.282 0-2.268.248-2.957.744-.69.497-1.034 1.209-1.034 2.137 0 .735.276 1.351.828 1.85.553.5 1.266.749 2.14.749zm.362-1.568c-.419 0-.753-.112-1.002-.334-.25-.223-.374-.522-.374-.898 0-.46.182-.818.547-1.07.365-.252.91-.378 1.633-.378h1.054v1.642c-.171.316-.427.568-.768.756-.34.188-.704.282-1.09.282zm6.968-8.53c.354 0 .627-.097.82-.293.194-.196.29-.441.29-.736 0-.3-.096-.55-.29-.749-.193-.198-.466-.297-.82-.297-.354 0-.626.099-.817.297-.19.199-.285.448-.285.749 0 .295.095.54.285.736.19.196.463.293.817.293zm.973 9.938v-8.706H42.26v8.706h1.955zm4.209 0V7.922h-1.956v12.36h1.956zm4.82.16c.9 0 1.662-.324 2.285-.973.064.376.14.646.225.813h1.995v-.137c-.22-.467-.33-1.092-.33-1.875v-3.926c-.016-.929-.327-1.649-.933-2.16-.606-.513-1.419-.77-2.438-.77-.67 0-1.278.119-1.822.355-.545.236-.975.562-1.292.977-.316.416-.475.863-.475 1.34h1.956c0-.343.142-.626.426-.849.284-.222.65-.334 1.094-.334.515 0 .899.136 1.151.407.252.27.378.631.378 1.082v.571h-1.199c-1.282 0-2.267.248-2.957.744-.689.497-1.034 1.209-1.034 2.137 0 .735.277 1.351.83 1.85.552.5 1.265.749 2.14.749zm.362-1.568c-.419 0-.753-.112-1.002-.334-.25-.223-.374-.522-.374-.898 0-.46.182-.818.547-1.07.365-.252.909-.378 1.633-.378h1.054v1.642c-.171.316-.428.568-.768.756-.34.188-.704.282-1.09.282zm7.788 1.408v-6.196c.387-.713.974-1.07 1.763-1.07.541 0 .932.133 1.17.398.239.266.358.675.358 1.227v5.64h1.956V14.53c-.033-2.076-.955-3.114-2.768-3.114-1.046 0-1.891.389-2.535 1.166l-.056-1.005h-1.843v8.706h1.955zm10.292.16c.976 0 1.756-.353 2.341-1.061l.097.9h1.77V7.924h-1.955v4.457c-.569-.644-1.315-.965-2.237-.965-1.046 0-1.88.406-2.503 1.219-.622.812-.933 1.89-.933 3.23 0 1.411.315 2.527.945 3.348.63.82 1.455 1.23 2.475 1.23zm.499-1.593c-.628 0-1.112-.248-1.453-.744-.34-.496-.51-1.187-.51-2.072 0-1.008.17-1.763.514-2.265.343-.501.832-.752 1.465-.752.799 0 1.378.349 1.738 1.046v3.717c-.37.714-.955 1.07-1.754 1.07z"/>
    </g>
</svg>
