<svg xmlns="http://www.w3.org/2000/svg" width="87" height="45" viewBox="0 0 87 45">
    <g fill="none" fill-rule="evenodd">
        <path fill="#FFF" d="M16.5 1h54C79.06 1 86 7.94 86 16.5 86 25.06 79.06 32 70.5 32h-54C7.94 32 1 25.06 1 16.5 1 7.94 7.94 1 16.5 1z"/>
        <path fill="#666" fill-rule="nonzero" d="M70.5.5h-54C7.663.5.5 7.663.5 16.5s7.163 16 16 16h54c8.837 0 16-7.163 16-16s-7.163-16-16-16zm-54 1h54c8.284 0 15 6.716 15 15 0 8.284-6.716 15-15 15h-54c-8.284 0-15-6.716-15-15 0-8.284 6.716-15 15-15z"/>
        <path fill="#333" fill-rule="nonzero" d="M24.436 21.5v-9.17h3.325v-1.494H19.3v1.494h3.296v9.17h1.839zm5.571.146c.82 0 1.514-.295 2.08-.886.059.342.127.589.205.74h1.817v-.125c-.2-.424-.3-.993-.3-1.706v-3.574c-.015-.845-.298-1.5-.85-1.967-.552-.466-1.292-.7-2.22-.7-.61 0-1.163.108-1.658.323-.496.215-.888.511-1.176.89-.288.378-.432.785-.432 1.22h1.78c0-.313.13-.57.388-.773.259-.203.59-.304.996-.304.469 0 .818.123 1.047.37.23.246.345.575.345.985v.52h-1.092c-1.167 0-2.064.226-2.691.677-.628.452-.941 1.1-.941 1.945 0 .669.251 1.23.754 1.684.503.454 1.152.681 1.948.681zm.33-1.428c-.381 0-.685-.101-.912-.304-.227-.202-.34-.475-.34-.816 0-.42.165-.745.497-.974.332-.23.828-.345 1.487-.345h.96v1.494c-.157.289-.39.518-.7.689-.31.17-.64.256-.992.256zm6.143-7.763c.322 0 .57-.09.747-.268.175-.178.263-.401.263-.67 0-.273-.088-.5-.263-.681-.176-.18-.425-.271-.747-.271-.323 0-.57.09-.744.27-.173.182-.26.409-.26.682 0 .269.087.492.26.67.173.178.421.268.744.268zm.886 9.045v-7.925h-1.78V21.5h1.78zm4.7 0l1.67-5.442 1.699 5.442H46.9l2.16-7.925h-1.736l-1.26 5.471-1.647-5.47h-1.34l-1.627 5.412-1.281-5.413h-1.736L40.6 21.5h1.465zm10.434.146c.82 0 1.514-.295 2.08-.886.06.342.127.589.206.74h1.816v-.125c-.2-.424-.3-.993-.3-1.706v-3.574c-.015-.845-.298-1.5-.85-1.967-.552-.466-1.291-.7-2.22-.7-.61 0-1.162.108-1.658.323-.496.215-.888.511-1.176.89-.288.378-.432.785-.432 1.22h1.78c0-.313.13-.57.388-.773.259-.203.591-.304.996-.304.47 0 .818.123 1.048.37.23.246.344.575.344.985v.52H53.43c-1.167 0-2.065.226-2.692.677-.627.452-.941 1.1-.941 1.945 0 .669.251 1.23.754 1.684.503.454 1.153.681 1.948.681zm.33-1.428c-.38 0-.685-.101-.912-.304-.227-.202-.34-.475-.34-.816 0-.42.166-.745.498-.974.332-.23.827-.345 1.486-.345h.96v1.494c-.156.289-.39.518-.7.689-.31.17-.64.256-.992.256zm6.89 1.282v-5.64c.351-.65.886-.974 1.604-.974.493 0 .848.121 1.066.363.217.241.325.614.325 1.117V21.5h1.78v-5.237c-.029-1.89-.869-2.834-2.52-2.834-.951 0-1.72.354-2.306 1.062l-.052-.916H57.94V21.5h1.78z"/>
        <path fill="#333" d="M43.515 37c-2.195 0-3.975 1.78-3.975 3.976 0 2.195 1.78 3.974 3.975 3.974 2.195 0 3.975-1.779 3.975-3.974 0-2.196-1.78-3.976-3.975-3.976"/>
    </g>
</svg>
