<svg xmlns="http://www.w3.org/2000/svg" width="89" height="38" viewBox="0 0 89 38">
    <g fill="none">
        <rect width="86.42" height="27.087" x="1.29" y="1.29" fill="#FFF" rx="10.5"/>
        <path fill="#666" d="M74.167.645H14.833C6.997.645.645 6.997.645 14.833s6.352 14.189 14.188 14.189h59.334c7.836 0 14.188-6.353 14.188-14.189S82.003.645 74.167.645zm-59.334 1.29h59.334c7.123 0 12.898 5.775 12.898 12.898 0 7.124-5.775 12.899-12.898 12.899H14.833c-7.123 0-12.898-5.775-12.898-12.899 0-7.123 5.775-12.898 12.898-12.898z"/>
        <path fill="#333" d="M19.326 20.638l4.29-11.921H21.34l-3.03 9.325-2.996-9.325h-2.268l4.274 11.92h2.006zm6.566-10.112c.36 0 .639-.1.835-.299.197-.199.295-.449.295-.749 0-.306-.098-.56-.295-.761-.196-.202-.475-.303-.835-.303s-.637.1-.83.303c-.195.202-.291.455-.291.761 0 .3.096.55.29.75.194.198.471.298.831.298zm.99 10.112v-8.86h-1.989v8.86h1.99zm6.068.163c.737 0 1.401-.146 1.994-.438.592-.292 1.065-.702 1.42-1.232l-1.072-1.023c-.574.737-1.316 1.105-2.227 1.105-.65 0-1.19-.213-1.618-.639-.428-.425-.672-1.004-.732-1.735h5.788v-.803c0-1.408-.329-2.497-.986-3.267-.658-.77-1.59-1.154-2.796-1.154-.76 0-1.447.194-2.064.581-.616.388-1.095.93-1.437 1.626-.34.695-.511 1.486-.511 2.37v.245c0 1.321.391 2.379 1.175 3.173.783.794 1.805 1.191 3.066 1.191zm1.588-5.42h-3.79c.092-.682.306-1.214.642-1.596.336-.382.777-.573 1.322-.573.552 0 .983.17 1.294.511.311.341.489.845.532 1.51v.148zm6.305 5.42c.42 0 .857-.062 1.31-.188v-1.54c-.235.055-.467.083-.696.083-.344 0-.583-.075-.717-.225-.133-.15-.2-.395-.2-.733v-4.945h1.564v-1.474H40.54V9.625h-1.99v2.154h-1.457v1.474h1.457v5.018c0 1.687.764 2.53 2.293 2.53zm4.74-.163v-6.305c.393-.726.991-1.089 1.793-1.089.552 0 .949.135 1.192.406.243.27.364.686.364 1.248v5.74h1.99v-5.854c-.033-2.113-.972-3.169-2.817-3.169-1.064 0-1.924.396-2.579 1.187l-.057-1.023h-1.875v8.859h1.99zm10.104.163c.917 0 1.692-.33 2.325-.99.065.382.142.657.23.827h2.03v-.14c-.224-.474-.336-1.11-.336-1.907v-3.996c-.016-.944-.333-1.677-.95-2.198-.616-.521-1.443-.782-2.48-.782-.683 0-1.301.12-1.855.36s-.992.572-1.314.995c-.322.423-.483.877-.483 1.363h1.99c0-.35.144-.637.433-.864.29-.226.66-.34 1.114-.34.524 0 .914.139 1.17.414.257.276.385.643.385 1.101v.582h-1.22c-1.304 0-2.307.252-3.008.757-.702.505-1.052 1.23-1.052 2.174 0 .748.28 1.375.843 1.883.562.508 1.288.761 2.178.761zm.368-1.596c-.426 0-.765-.113-1.02-.34-.253-.226-.38-.53-.38-.913 0-.47.186-.832.557-1.089.371-.256.925-.385 1.662-.385h1.072v1.67c-.174.323-.435.58-.781.77-.347.191-.717.287-1.11.287zm7.95 1.433v-6.42c.333-.649.898-.974 1.695-.974 1.037 0 1.57.522 1.597 1.564v5.83h1.99l-.009-6.075c.115-.393.315-.711.602-.954.286-.243.656-.365 1.11-.365.567 0 .974.131 1.22.393.245.262.368.674.368 1.237v5.764h1.99v-5.822c-.012-1.053-.256-1.85-.734-2.39-.477-.54-1.204-.811-2.182-.811-1.168 0-2.074.453-2.718 1.36-.436-.907-1.247-1.36-2.432-1.36-1.08 0-1.932.363-2.554 1.089l-.057-.925h-1.875v8.859h1.99zM41.764 34.602c0 1.504 1.22 2.724 2.724 2.724 1.505 0 2.724-1.22 2.724-2.724 0-1.505-1.22-2.725-2.724-2.725-1.504 0-2.724 1.22-2.724 2.725z"/>
    </g>
</svg>
