<svg xmlns="http://www.w3.org/2000/svg" width="98" height="45" viewBox="0 0 98 45">
    <g fill="none" fill-rule="evenodd">
        <path fill="#FFF" d="M16.5 1h65C90.06 1 97 7.94 97 16.5 97 25.06 90.06 32 81.5 32h-65C7.94 32 1 25.06 1 16.5 1 7.94 7.94 1 16.5 1z"/>
        <path fill="#666" fill-rule="nonzero" d="M81.5.5h-65C7.663.5.5 7.663.5 16.5s7.163 16 16 16h65c8.837 0 16-7.163 16-16s-7.163-16-16-16zm-65 1h65c8.284 0 15 6.716 15 15 0 8.284-6.716 15-15 15h-65c-8.284 0-15-6.716-15-15 0-8.284 6.716-15 15-15z"/>
        <path fill="#333" fill-rule="nonzero" d="M27.75 22l3.837-10.664h-2.036l-2.71 8.342-2.68-8.342h-2.03L25.956 22h1.795zm5.674-9.045c.322 0 .57-.09.747-.268.175-.178.263-.401.263-.67 0-.273-.088-.5-.263-.681-.176-.18-.425-.271-.747-.271-.323 0-.57.09-.744.27-.173.182-.26.409-.26.682 0 .269.087.492.26.67.173.178.421.268.744.268zM34.31 22v-7.925h-1.78V22h1.78zm5.227.146c.66 0 1.254-.13 1.783-.391.53-.262.954-.629 1.271-1.103l-.96-.915c-.512.659-1.176.989-1.991.989-.582 0-1.064-.19-1.447-.572-.383-.38-.602-.898-.655-1.552h5.178v-.718c0-1.26-.294-2.234-.883-2.923-.588-.688-1.422-1.032-2.501-1.032-.679 0-1.294.173-1.846.52-.552.346-.98.831-1.285 1.454-.305.622-.458 1.329-.458 2.12v.22c0 1.181.35 2.127 1.051 2.838.7.71 1.615 1.065 2.743 1.065zm1.42-4.848h-3.39c.083-.61.274-1.087.575-1.428.3-.342.694-.513 1.183-.513.493 0 .879.153 1.157.458.278.305.437.755.476 1.351v.132zm5.44 4.848c.377 0 .767-.056 1.172-.168v-1.377c-.21.049-.417.073-.622.073-.308 0-.521-.067-.641-.201s-.18-.353-.18-.656v-4.423h1.4v-1.319h-1.4V12.15h-1.78v1.926h-1.303v1.319h1.304v4.49c0 1.508.683 2.262 2.05 2.262zM50.439 22v-5.64c.352-.65.887-.974 1.604-.974.493 0 .849.121 1.066.363.217.241.326.614.326 1.117V22h1.78v-5.237c-.03-1.89-.87-2.834-2.52-2.834-.952 0-1.721.354-2.307 1.062l-.051-.916h-1.678V22h1.78zm8.838.146c.82 0 1.514-.295 2.08-.886.059.342.127.589.206.74h1.816v-.125c-.2-.424-.3-.993-.3-1.706v-3.574c-.015-.845-.298-1.5-.85-1.967-.552-.466-1.291-.7-2.22-.7-.61 0-1.163.108-1.658.323-.496.215-.888.511-1.176.89-.288.378-.432.785-.432 1.22h1.78c0-.313.13-.57.388-.773.259-.203.591-.304.996-.304.469 0 .818.123 1.048.37.23.246.344.575.344.985v.52h-1.091c-1.167 0-2.065.226-2.692.677-.628.452-.941 1.1-.941 1.945 0 .669.251 1.23.754 1.684.503.454 1.152.681 1.948.681zm.33-1.428c-.38 0-.685-.101-.912-.304-.227-.202-.34-.475-.34-.816 0-.42.166-.745.498-.974.332-.23.827-.345 1.486-.345h.96v1.494c-.156.289-.39.518-.7.689-.31.17-.64.256-.992.256zM66.518 22v-5.742c.298-.581.803-.872 1.516-.872.928 0 1.404.467 1.428 1.4V22h1.78l-.007-5.435c.102-.351.282-.636.538-.853.256-.217.587-.326.992-.326.508 0 .872.117 1.092.352.22.234.33.603.33 1.106V22h1.779v-5.208c-.01-.942-.228-1.655-.656-2.138-.427-.484-1.077-.725-1.951-.725-1.045 0-1.856.405-2.432 1.216-.39-.811-1.116-1.216-2.175-1.216-.967 0-1.729.324-2.285.974l-.052-.828h-1.677V22h1.78z"/>
        <path fill="#333" d="M44.36 40.908c0 2.195 1.78 3.975 3.975 3.975 2.196 0 3.976-1.78 3.976-3.975 0-2.196-1.78-3.976-3.976-3.976-2.195 0-3.975 1.78-3.975 3.976z"/>
    </g>
</svg>
