<svg xmlns="http://www.w3.org/2000/svg" xmlns:xlink="http://www.w3.org/1999/xlink" width="120" height="29" viewBox="0 0 120 29">
    <defs>
        <path id="prefix__a" d="M0 0.114L27.058 0.114 27.058 26.769 0 26.769z"/>
    </defs>
    <g fill="none" fill-rule="evenodd">
        <path fill="#222" d="M50.598 26.094L46.154 17.9c2.655-1.268 4.066-3.58 4.066-6.486 0-4.649-3.368-8.06-9.436-8.06h-9.842v22.74l.196.001h5.592V8.503h3.739c2.174 0 3.255 1.039 3.331 2.91.024.57-.08 1.141-.317 1.662-.22.487-.552.918-.955 1.273-.404.352-.878.627-1.382.814-.533.198-1.09.288-1.657.291-.402 0-.801.008-1.203-.01l5.784 10.651h6.528zM108.955 26.094c2.913-.236 5.788-1.324 7.408-3.84 1.002-1.554 1.372-3.413 1.372-5.235V3.353h-6.112v13.712c0 2.095-1.675 3.797-3.82 3.925-2.245.134-4.107-1.716-4.107-3.934V3.353h-6.112V17.02c0 1.737.335 3.507 1.238 5.017.799 1.34 2.014 2.38 3.434 3.044 2.055.962 4.45 1.197 6.699 1.014M83.709 17.231L78.497 3.353 72.215 3.353 81.481 26.094 86.121 26.094 95.265 3.353 88.957 3.353zM59.177 17.065L69.082 17.065 69.082 12.215 59.177 12.215 59.177 7.966 70.005 7.966 70.005 3.353 53.274 3.353 53.274 26.094 70.005 26.094 70.005 21.498 59.177 21.498z" transform="translate(1.132)"/>
        <g transform="translate(1.132) translate(0 1.002)">
            <mask id="prefix__b" fill="#fff">
                <use xlink:href="#prefix__a"/>
            </mask>
            <path fill="#5C19DD" d="M22.377 13.442c0 4.805-3.969 8.715-8.85 8.715-4.876 0-8.846-3.91-8.846-8.715 0-4.81 3.97-8.72 8.847-8.72 4.88 0 8.85 3.91 8.85 8.72M13.527.114C6.07.114-.001 6.094-.001 13.442 0 20.79 6.07 26.77 13.528 26.77c7.46 0 13.53-5.98 13.53-13.327 0-7.348-6.07-13.328-13.53-13.328" mask="url(#prefix__b)"/>
        </g>
        <path fill="#222" d="M18.52 13.111c-.751 1.346-2.572 1.882-4.026.85-.641-.455-1.046-1.198-1.074-1.975-.041-1.142.546-2.019 1.371-2.483.108-.061.082-.228-.04-.257-.88-.201-1.843-.191-2.834.094-1.735.502-3.12 1.888-3.595 3.606-1.123 4.067 2.512 7.689 6.634 6.651 1.77-.445 3.199-1.814 3.736-3.534.32-1.026.317-2.017.088-2.918-.03-.117-.2-.14-.26-.034" transform="translate(1.132)"/>
    </g>
</svg>
