<svg xmlns="http://www.w3.org/2000/svg" width="104" height="144" viewBox="0 0 104 144">
    <path fill="#D0D8E2" fill-rule="evenodd" d="M2.836 138c1.567 0 2.837 1.343 2.837 3s-1.27 3-2.837 3C1.27 144 0 142.657 0 141s1.27-3 2.836-3zm24.582 0c1.567 0 2.837 1.343 2.837 3s-1.27 3-2.837 3c-1.566 0-2.836-1.343-2.836-3s1.27-3 2.836-3zM52 138c1.566 0 2.836 1.343 2.836 3s-1.27 3-2.836 3c-1.566 0-2.836-1.343-2.836-3s1.27-3 2.836-3zm24.582 0c1.566 0 2.836 1.343 2.836 3s-1.27 3-2.836 3c-1.567 0-2.837-1.343-2.837-3s1.27-3 2.837-3zm24.582 0c1.566 0 2.836 1.343 2.836 3s-1.27 3-2.836 3c-1.567 0-2.837-1.343-2.837-3s1.27-3 2.837-3zM2.836 112c1.567 0 2.837 1.343 2.837 3s-1.27 3-2.837 3C1.27 118 0 116.657 0 115s1.27-3 2.836-3zm24.582 0c1.567 0 2.837 1.343 2.837 3s-1.27 3-2.837 3c-1.566 0-2.836-1.343-2.836-3s1.27-3 2.836-3zM52 112c1.566 0 2.836 1.343 2.836 3s-1.27 3-2.836 3c-1.566 0-2.836-1.343-2.836-3s1.27-3 2.836-3zm24.582 0c1.566 0 2.836 1.343 2.836 3s-1.27 3-2.836 3c-1.567 0-2.837-1.343-2.837-3s1.27-3 2.837-3zm24.582 0c1.566 0 2.836 1.343 2.836 3s-1.27 3-2.836 3c-1.567 0-2.837-1.343-2.837-3s1.27-3 2.837-3zM2.836 82c1.567 0 2.837 1.343 2.837 3s-1.27 3-2.837 3C1.27 88 0 86.657 0 85s1.27-3 2.836-3zm24.582 0c1.567 0 2.837 1.343 2.837 3s-1.27 3-2.837 3c-1.566 0-2.836-1.343-2.836-3s1.27-3 2.836-3zM52 82c1.566 0 2.836 1.343 2.836 3s-1.27 3-2.836 3c-1.566 0-2.836-1.343-2.836-3s1.27-3 2.836-3zm24.582 0c1.566 0 2.836 1.343 2.836 3s-1.27 3-2.836 3c-1.567 0-2.837-1.343-2.837-3s1.27-3 2.837-3zm24.582 0c1.566 0 2.836 1.343 2.836 3s-1.27 3-2.836 3c-1.567 0-2.837-1.343-2.837-3s1.27-3 2.837-3zM2.836 55c1.567 0 2.837 1.343 2.837 3s-1.27 3-2.837 3C1.27 61 0 59.657 0 58s1.27-3 2.836-3zm24.582 0c1.567 0 2.837 1.343 2.837 3s-1.27 3-2.837 3c-1.566 0-2.836-1.343-2.836-3s1.27-3 2.836-3zM52 55c1.566 0 2.836 1.343 2.836 3s-1.27 3-2.836 3c-1.566 0-2.836-1.343-2.836-3s1.27-3 2.836-3zm24.582 0c1.566 0 2.836 1.343 2.836 3s-1.27 3-2.836 3c-1.567 0-2.837-1.343-2.837-3s1.27-3 2.837-3zm24.582 0c1.566 0 2.836 1.343 2.836 3s-1.27 3-2.836 3c-1.567 0-2.837-1.343-2.837-3s1.27-3 2.837-3zM2.836 27c1.567 0 2.837 1.343 2.837 3s-1.27 3-2.837 3C1.27 33 0 31.657 0 30s1.27-3 2.836-3zm24.582 0c1.567 0 2.837 1.343 2.837 3s-1.27 3-2.837 3c-1.566 0-2.836-1.343-2.836-3s1.27-3 2.836-3zM52 27c1.566 0 2.836 1.343 2.836 3s-1.27 3-2.836 3c-1.566 0-2.836-1.343-2.836-3s1.27-3 2.836-3zm24.582 0c1.566 0 2.836 1.343 2.836 3s-1.27 3-2.836 3c-1.567 0-2.837-1.343-2.837-3s1.27-3 2.837-3zm24.582 0c1.566 0 2.836 1.343 2.836 3s-1.27 3-2.836 3c-1.567 0-2.837-1.343-2.837-3s1.27-3 2.837-3zM2.836 0c1.567 0 2.837 1.343 2.837 3s-1.27 3-2.837 3C1.27 6 0 4.657 0 3s1.27-3 2.836-3zm24.582 0c1.567 0 2.837 1.343 2.837 3s-1.27 3-2.837 3c-1.566 0-2.836-1.343-2.836-3s1.27-3 2.836-3zM52 0c1.566 0 2.836 1.343 2.836 3S53.566 6 52 6c-1.566 0-2.836-1.343-2.836-3S50.434 0 52 0zm24.582 0c1.566 0 2.836 1.343 2.836 3s-1.27 3-2.836 3c-1.567 0-2.837-1.343-2.837-3s1.27-3 2.837-3zm24.582 0C102.73 0 104 1.343 104 3s-1.27 3-2.836 3c-1.567 0-2.837-1.343-2.837-3s1.27-3 2.837-3z" opacity=".6"/>
</svg>
