<svg xmlns="http://www.w3.org/2000/svg" width="461" height="446" viewBox="0 0 461 446">
    <defs>
        <linearGradient id="prefix__a" x1="2.029%" x2="113.605%" y1="9.581%" y2="109.428%">
            <stop offset="0%" stop-color="#991FFF"/>
            <stop offset="100%" stop-color="#4B00DC"/>
        </linearGradient>
        <linearGradient id="prefix__b" x1="-1.458%" x2="101.928%" y1="-15.916%" y2="70.91%">
            <stop offset="0%" stop-color="#21FFB0"/>
            <stop offset="100%" stop-color="#39E9FF"/>
        </linearGradient>
    </defs>
    <g fill="none" fill-rule="evenodd">
        <circle cx="216.5" cy="216.5" r="216.5" fill="url(#prefix__a)"/>
        <path fill="#D0D8E2" d="M332 422.555c0 .798-.672 1.445-1.5 1.445s-1.5-.647-1.5-1.445c0-.799.672-1.446 1.5-1.446s1.5.647 1.5 1.446zm0-12.528c0 .799-.672 1.446-1.5 1.446s-1.5-.647-1.5-1.446c0-.798.672-1.445 1.5-1.445s1.5.647 1.5 1.445zm0-12.527c0 .798-.672 1.445-1.5 1.445s-1.5-.647-1.5-1.445.672-1.445 1.5-1.445 1.5.647 1.5 1.445zm0-12.527c0 .798-.672 1.445-1.5 1.445s-1.5-.647-1.5-1.445c0-.799.672-1.446 1.5-1.446s1.5.647 1.5 1.446zm0-12.528c0 .799-.672 1.446-1.5 1.446s-1.5-.647-1.5-1.446c0-.798.672-1.445 1.5-1.445s1.5.647 1.5 1.445zm12 0c0 .799-.672 1.446-1.5 1.446s-1.5-.647-1.5-1.446c0-.798.672-1.445 1.5-1.445s1.5.647 1.5 1.445zm0 50.11c0 .798-.672 1.445-1.5 1.445s-1.5-.647-1.5-1.445c0-.799.672-1.446 1.5-1.446s1.5.647 1.5 1.446zm0-12.528c0 .799-.672 1.446-1.5 1.446s-1.5-.647-1.5-1.446c0-.798.672-1.445 1.5-1.445s1.5.647 1.5 1.445zm0-12.527c0 .798-.672 1.445-1.5 1.445s-1.5-.647-1.5-1.445.672-1.445 1.5-1.445 1.5.647 1.5 1.445zm0-12.527c0 .798-.672 1.445-1.5 1.445s-1.5-.647-1.5-1.445c0-.799.672-1.446 1.5-1.446s1.5.647 1.5 1.446zm11 0c0 .798-.672 1.445-1.5 1.445s-1.5-.647-1.5-1.445c0-.799.672-1.446 1.5-1.446s1.5.647 1.5 1.446zm0 12.527c0 .798-.672 1.445-1.5 1.445s-1.5-.647-1.5-1.445.672-1.445 1.5-1.445 1.5.647 1.5 1.445zm0 12.527c0 .799-.672 1.446-1.5 1.446s-1.5-.647-1.5-1.446c0-.798.672-1.445 1.5-1.445s1.5.647 1.5 1.445zm0 12.528c0 .798-.672 1.445-1.5 1.445s-1.5-.647-1.5-1.445c0-.799.672-1.446 1.5-1.446s1.5.647 1.5 1.446zm0-50.11c0 .799-.672 1.446-1.5 1.446s-1.5-.647-1.5-1.446c0-.798.672-1.445 1.5-1.445s1.5.647 1.5 1.445zm13 0c0 .799-.672 1.446-1.5 1.446s-1.5-.647-1.5-1.446c0-.798.672-1.445 1.5-1.445s1.5.647 1.5 1.445zm0 12.528c0 .798-.672 1.445-1.5 1.445s-1.5-.647-1.5-1.445c0-.799.672-1.446 1.5-1.446s1.5.647 1.5 1.446zm0 12.527c0 .798-.672 1.445-1.5 1.445s-1.5-.647-1.5-1.445.672-1.445 1.5-1.445 1.5.647 1.5 1.445zm0 12.527c0 .799-.672 1.446-1.5 1.446s-1.5-.647-1.5-1.446c0-.798.672-1.445 1.5-1.445s1.5.647 1.5 1.445zm0 12.528c0 .798-.672 1.445-1.5 1.445s-1.5-.647-1.5-1.445c0-.799.672-1.446 1.5-1.446s1.5.647 1.5 1.446zm12-50.11c0 .799-.672 1.446-1.5 1.446s-1.5-.647-1.5-1.446c0-.798.672-1.445 1.5-1.445s1.5.647 1.5 1.445zm0 12.528c0 .798-.672 1.445-1.5 1.445s-1.5-.647-1.5-1.445c0-.799.672-1.446 1.5-1.446s1.5.647 1.5 1.446zm0 25.054c0 .799-.672 1.446-1.5 1.446s-1.5-.647-1.5-1.446c0-.798.672-1.445 1.5-1.445s1.5.647 1.5 1.445zm0 12.528c0 .798-.672 1.445-1.5 1.445s-1.5-.647-1.5-1.445c0-.799.672-1.446 1.5-1.446s1.5.647 1.5 1.446zm0-25.055c0 .798-.672 1.445-1.5 1.445s-1.5-.647-1.5-1.445.672-1.445 1.5-1.445 1.5.647 1.5 1.445zm12-25.055c0 .799-.672 1.446-1.5 1.446s-1.5-.647-1.5-1.446c0-.798.672-1.445 1.5-1.445s1.5.647 1.5 1.445zm0 12.528c0 .798-.672 1.445-1.5 1.445s-1.5-.647-1.5-1.445c0-.799.672-1.446 1.5-1.446s1.5.647 1.5 1.446zm0 12.527c0 .798-.672 1.445-1.5 1.445s-1.5-.647-1.5-1.445.672-1.445 1.5-1.445 1.5.647 1.5 1.445zm0 12.527c0 .799-.672 1.446-1.5 1.446s-1.5-.647-1.5-1.446c0-.798.672-1.445 1.5-1.445s1.5.647 1.5 1.445zm0 12.528c0 .798-.672 1.445-1.5 1.445s-1.5-.647-1.5-1.445c0-.799.672-1.446 1.5-1.446s1.5.647 1.5 1.446zm10-50.11c0 .799-.672 1.446-1.5 1.446s-1.5-.647-1.5-1.446c0-.798.672-1.445 1.5-1.445s1.5.647 1.5 1.445zm0 12.528c0 .798-.672 1.445-1.5 1.445s-1.5-.647-1.5-1.445c0-.799.672-1.446 1.5-1.446s1.5.647 1.5 1.446zm0 12.527c0 .798-.672 1.445-1.5 1.445s-1.5-.647-1.5-1.445.672-1.445 1.5-1.445 1.5.647 1.5 1.445zm0 12.527c0 .799-.672 1.446-1.5 1.446s-1.5-.647-1.5-1.446c0-.798.672-1.445 1.5-1.445s1.5.647 1.5 1.445zm0 12.528c0 .798-.672 1.445-1.5 1.445s-1.5-.647-1.5-1.445c0-.799.672-1.446 1.5-1.446s1.5.647 1.5 1.446z" opacity=".6"/>
        <path fill="#FE4EF2" fill-rule="nonzero" d="M397 392c14.912 0 27 12.088 27 27s-12.088 27-27 27-27-12.088-27-27 12.088-27 27-27zm0 12c-8.284 0-15 6.716-15 15 0 8.284 6.716 15 15 15 8.284 0 15-6.716 15-15 0-8.284-6.716-15-15-15z"/>
        <circle cx="452" cy="402" r="9" fill="url(#prefix__b)"/>
    </g>
</svg>
